<svg id="visual" viewBox="0 0 900 600" width="900" height="600" xmlns="http://www.w3.org/2000/svg" xmlns:xlink="http://www.w3.org/1999/xlink" version="1.1"><g stroke-width="1" stroke-linejoin="bevel"><path d="M416 266L500 185L413 176Z" fill="#cccccc" stroke="#cccccc"></path><path d="M416 266L526 298L500 185Z" fill="#f5f5f5" stroke="#f5f5f5"></path><path d="M604 113L495 118L500 185Z" fill="#f5f5f5" stroke="#f5f5f5"></path><path d="M500 185L495 118L413 176Z" fill="#fafafa" stroke="#fafafa"></path><path d="M416 90L335 169L413 176Z" fill="#e5e5e5" stroke="#e5e5e5"></path><path d="M413 176L335 169L416 266Z" fill="#fafafa" stroke="#fafafa"></path><path d="M495 118L416 90L413 176Z" fill="#f5f5f5" stroke="#f5f5f5"></path><path d="M335 169L303 270L416 266Z" fill="#efefef" stroke="#efefef"></path><path d="M465 433L572 335L526 298Z" fill="#efefef" stroke="#efefef"></path><path d="M416 90L320 120L335 169Z" fill="#ffffff" stroke="#ffffff"></path><path d="M335 169L172 194L303 270Z" fill="#f5f5f5" stroke="#f5f5f5"></path><path d="M411 417L526 298L416 266Z" fill="#d1d1d1" stroke="#d1d1d1"></path><path d="M526 298L630 188L500 185Z" fill="#d6d6d6" stroke="#d6d6d6"></path><path d="M572 335L630 188L526 298Z" fill="#e5e5e5" stroke="#e5e5e5"></path><path d="M630 188L604 113L500 185Z" fill="#e5e5e5" stroke="#e5e5e5"></path><path d="M501 0L424 0L416 90Z" fill="#d1d1d1" stroke="#d1d1d1"></path><path d="M303 270L411 417L416 266Z" fill="#d1d1d1" stroke="#d1d1d1"></path><path d="M465 433L586 376L572 335Z" fill="#e0e0e0" stroke="#e0e0e0"></path><path d="M698 307L701 214L630 188Z" fill="#ffffff" stroke="#ffffff"></path><path d="M411 417L465 433L526 298Z" fill="#cccccc" stroke="#cccccc"></path><path d="M501 0L416 90L495 118Z" fill="#f5f5f5" stroke="#f5f5f5"></path><path d="M416 90L271 0L320 120Z" fill="#efefef" stroke="#efefef"></path><path d="M604 113L501 0L495 118Z" fill="#dbdbdb" stroke="#dbdbdb"></path><path d="M411 417L423 465L465 433Z" fill="#e0e0e0" stroke="#e0e0e0"></path><path d="M465 433L485 473L586 376Z" fill="#eaeaea" stroke="#eaeaea"></path><path d="M298 530L423 465L411 417Z" fill="#ffffff" stroke="#ffffff"></path><path d="M698 307L630 188L572 335Z" fill="#d1d1d1" stroke="#d1d1d1"></path><path d="M630 188L724 102L604 113Z" fill="#fafafa" stroke="#fafafa"></path><path d="M604 113L611 0L501 0Z" fill="#d1d1d1" stroke="#d1d1d1"></path><path d="M218 323L271 399L303 270Z" fill="#d6d6d6" stroke="#d6d6d6"></path><path d="M303 270L271 399L411 417Z" fill="#ffffff" stroke="#ffffff"></path><path d="M423 465L485 473L465 433Z" fill="#f5f5f5" stroke="#f5f5f5"></path><path d="M172 194L218 323L303 270Z" fill="#ffffff" stroke="#ffffff"></path><path d="M704 375L698 307L586 376Z" fill="#dbdbdb" stroke="#dbdbdb"></path><path d="M586 376L698 307L572 335Z" fill="#f5f5f5" stroke="#f5f5f5"></path><path d="M708 0L611 0L604 113Z" fill="#eaeaea" stroke="#eaeaea"></path><path d="M218 323L227 371L271 399Z" fill="#dbdbdb" stroke="#dbdbdb"></path><path d="M167 66L172 194L320 120Z" fill="#e5e5e5" stroke="#e5e5e5"></path><path d="M320 120L172 194L335 169Z" fill="#e5e5e5" stroke="#e5e5e5"></path><path d="M218 323L103 308L227 371Z" fill="#eaeaea" stroke="#eaeaea"></path><path d="M424 0L271 0L416 90Z" fill="#d1d1d1" stroke="#d1d1d1"></path><path d="M685 494L704 375L586 376Z" fill="#f5f5f5" stroke="#f5f5f5"></path><path d="M800 188L724 102L701 214Z" fill="#d1d1d1" stroke="#d1d1d1"></path><path d="M701 214L724 102L630 188Z" fill="#dbdbdb" stroke="#dbdbdb"></path><path d="M766 289L701 214L698 307Z" fill="#f5f5f5" stroke="#f5f5f5"></path><path d="M529 600L567 511L485 473Z" fill="#d1d1d1" stroke="#d1d1d1"></path><path d="M485 473L567 511L586 376Z" fill="#dbdbdb" stroke="#dbdbdb"></path><path d="M704 375L766 289L698 307Z" fill="#cccccc" stroke="#cccccc"></path><path d="M271 0L167 66L320 120Z" fill="#dbdbdb" stroke="#dbdbdb"></path><path d="M271 0L208 0L167 66Z" fill="#e0e0e0" stroke="#e0e0e0"></path><path d="M829 0L708 0L724 102Z" fill="#f5f5f5" stroke="#f5f5f5"></path><path d="M724 102L708 0L604 113Z" fill="#d1d1d1" stroke="#d1d1d1"></path><path d="M124 73L106 212L172 194Z" fill="#fafafa" stroke="#fafafa"></path><path d="M172 194L103 308L218 323Z" fill="#eaeaea" stroke="#eaeaea"></path><path d="M199 493L298 530L271 399Z" fill="#e0e0e0" stroke="#e0e0e0"></path><path d="M271 399L298 530L411 417Z" fill="#efefef" stroke="#efefef"></path><path d="M423 465L386 600L485 473Z" fill="#f5f5f5" stroke="#f5f5f5"></path><path d="M199 493L271 399L227 371Z" fill="#e0e0e0" stroke="#e0e0e0"></path><path d="M766 289L800 188L701 214Z" fill="#efefef" stroke="#efefef"></path><path d="M567 511L685 494L586 376Z" fill="#cccccc" stroke="#cccccc"></path><path d="M704 375L806 432L766 289Z" fill="#cccccc" stroke="#cccccc"></path><path d="M167 66L124 73L172 194Z" fill="#dbdbdb" stroke="#dbdbdb"></path><path d="M117 0L124 73L167 66Z" fill="#f5f5f5" stroke="#f5f5f5"></path><path d="M106 212L103 308L172 194Z" fill="#e5e5e5" stroke="#e5e5e5"></path><path d="M81 394L199 493L227 371Z" fill="#cccccc" stroke="#cccccc"></path><path d="M319 600L386 600L298 530Z" fill="#e0e0e0" stroke="#e0e0e0"></path><path d="M298 530L386 600L423 465Z" fill="#d6d6d6" stroke="#d6d6d6"></path><path d="M567 511L582 600L685 494Z" fill="#eaeaea" stroke="#eaeaea"></path><path d="M386 600L529 600L485 473Z" fill="#dbdbdb" stroke="#dbdbdb"></path><path d="M900 200L832 120L800 188Z" fill="#e5e5e5" stroke="#e5e5e5"></path><path d="M800 188L832 120L724 102Z" fill="#d1d1d1" stroke="#d1d1d1"></path><path d="M0 115L0 231L106 212Z" fill="#fafafa" stroke="#fafafa"></path><path d="M208 0L117 0L167 66Z" fill="#d1d1d1" stroke="#d1d1d1"></path><path d="M529 600L582 600L567 511Z" fill="#fafafa" stroke="#fafafa"></path><path d="M216 600L319 600L298 530Z" fill="#efefef" stroke="#efefef"></path><path d="M0 264L81 394L103 308Z" fill="#d1d1d1" stroke="#d1d1d1"></path><path d="M103 308L81 394L227 371Z" fill="#fafafa" stroke="#fafafa"></path><path d="M199 493L216 600L298 530Z" fill="#d1d1d1" stroke="#d1d1d1"></path><path d="M0 264L103 308L106 212Z" fill="#dbdbdb" stroke="#dbdbdb"></path><path d="M834 533L806 432L685 494Z" fill="#e5e5e5" stroke="#e5e5e5"></path><path d="M685 494L806 432L704 375Z" fill="#cccccc" stroke="#cccccc"></path><path d="M900 284L900 200L800 188Z" fill="#f5f5f5" stroke="#f5f5f5"></path><path d="M832 120L829 0L724 102Z" fill="#e5e5e5" stroke="#e5e5e5"></path><path d="M128 600L216 600L199 493Z" fill="#fafafa" stroke="#fafafa"></path><path d="M900 284L800 188L766 289Z" fill="#eaeaea" stroke="#eaeaea"></path><path d="M832 120L900 114L829 0Z" fill="#ffffff" stroke="#ffffff"></path><path d="M81 394L89 487L199 493Z" fill="#ffffff" stroke="#ffffff"></path><path d="M900 369L900 284L766 289Z" fill="#f5f5f5" stroke="#f5f5f5"></path><path d="M0 115L106 212L124 73Z" fill="#ffffff" stroke="#ffffff"></path><path d="M81 394L0 435L89 487Z" fill="#ffffff" stroke="#ffffff"></path><path d="M0 231L0 264L106 212Z" fill="#e0e0e0" stroke="#e0e0e0"></path><path d="M900 200L900 114L832 120Z" fill="#eaeaea" stroke="#eaeaea"></path><path d="M0 0L0 115L124 73Z" fill="#dbdbdb" stroke="#dbdbdb"></path><path d="M582 600L727 600L685 494Z" fill="#efefef" stroke="#efefef"></path><path d="M806 432L900 369L766 289Z" fill="#f5f5f5" stroke="#f5f5f5"></path><path d="M900 534L900 369L806 432Z" fill="#e0e0e0" stroke="#e0e0e0"></path><path d="M769 600L834 533L685 494Z" fill="#fafafa" stroke="#fafafa"></path><path d="M727 600L769 600L685 494Z" fill="#fafafa" stroke="#fafafa"></path><path d="M900 114L900 0L829 0Z" fill="#e0e0e0" stroke="#e0e0e0"></path><path d="M89 487L128 600L199 493Z" fill="#eaeaea" stroke="#eaeaea"></path><path d="M0 600L128 600L89 487Z" fill="#dbdbdb" stroke="#dbdbdb"></path><path d="M0 264L0 435L81 394Z" fill="#ffffff" stroke="#ffffff"></path><path d="M117 0L0 0L124 73Z" fill="#e0e0e0" stroke="#e0e0e0"></path><path d="M0 435L0 471L89 487Z" fill="#e5e5e5" stroke="#e5e5e5"></path><path d="M900 600L900 534L834 533Z" fill="#e5e5e5" stroke="#e5e5e5"></path><path d="M834 533L900 534L806 432Z" fill="#eaeaea" stroke="#eaeaea"></path><path d="M769 600L900 600L834 533Z" fill="#ffffff" stroke="#ffffff"></path><path d="M0 471L0 600L89 487Z" fill="#ffffff" stroke="#ffffff"></path></g></svg>